<svg height="511pt" viewBox="-31 0 511 511.9991" width="511pt" xmlns="http://www.w3.org/2000/svg"><path d="m225.089844 512c-14.183594 0-25.722656-11.539062-25.722656-25.722656v-19.964844h-12.347657c-14.183593 0-25.722656-11.539062-25.722656-25.722656s11.539063-25.722656 25.722656-25.722656h12.347657v-61.453126c-66.519532-12.257812-115.890626-70.988281-115.890626-139.261718 0-27.238282 7.695313-53.453125 22.3125-76.230469l-6.421874-6.003906-5.207032 5.710937c-9.441406 10.351563-25.984375 11.117188-36.339844 1.675782-10.355468-9.449219-11.125-25.976563-1.671874-36.339844l5.617187-6.164063-8.257813-7.710937.042969 1.660156c.175781 6.871094-2.332031 13.394531-7.0625 18.378906-4.839843 5.089844-11.632812 8.003906-18.660156 8.003906-14.054687 0-25.34375-11.007812-25.703125-25.0625l-1.617188-63.007812c-.355468-13.9375 10.6875-25.761719 24.621094-26.355469l62.972656-2.6796872c14.027344-.6406248 26.199219 10.6093752 26.792969 24.6054682.59375 14.011719-10.597656 26.195313-24.605469 26.789063l-1.664062.074219 7.808594 7.292968 7.417968-8.136718c9.554688-10.476563 25.859376-11.230469 36.339844-1.675782 5.078125 4.628907 8.046875 10.957032 8.363282 17.824219.316406 6.863281-2.058594 13.4375-6.691407 18.515625l-7.832031 8.589844 6.890625 6.4375c24.277344-17.972656 53.910156-27.800781 84.167969-27.800781 30.257812 0 59.890625 9.828125 84.167968 27.800781l52.296876-48.847656-1.660157-.070313c-6.867187-.292969-13.207031-3.242187-17.855469-8.300781-4.644531-5.0625-7.042968-11.628906-6.75-18.492188.292969-6.886718 3.25-13.242187 8.332032-17.894531 5.066406-4.640625 11.632812-7.023437 18.480468-6.7109372l62.949219 2.6796872c13.933594.59375 24.976563 12.417969 24.621094 26.359375l-1.617187 63.007813c-.359376 14.054687-11.652344 25.0625-25.703126 25.0625-.222656 0-.441406-.003907-.660156-.007813-14.1875-.363281-25.425781-12.195312-25.0625-26.375l.042969-1.664062-52.28125 48.832031c14.621094 22.78125 22.3125 48.992187 22.3125 76.234375 0 4.175781-3.386719 7.5625-7.566406 7.5625-4.175781 0-7.5625-3.386719-7.5625-7.5625 0-26.304688-8.035157-51.539062-23.238281-72.980469-2.1875-3.085937-1.757813-7.320312 1.007812-9.902343l70.1875-65.558594c4.808594-4.488282 12.898438-.835938 12.726562 5.722656l-.503906 19.703125c-.148437 5.839844 4.480469 10.710937 10.316406 10.863281h.28125c5.6875 0 10.433594-4.628906 10.578126-10.320312l1.617187-63.007813c.144531-5.738281-4.402344-10.605469-10.136719-10.851562l-62.972656-2.679688c-5.769531-.28125-10.792969 4.371094-11.03125 10.128907-.238281 5.773437 4.355469 10.789062 10.128906 11.035156l19.695313.835937c6.554687.28125 9.648437 8.597657 4.84375 13.089844l-70.199219 65.566406c-2.769531 2.582031-7.015625 2.726563-9.949219.332031-22.492187-18.351562-50.84375-28.460937-79.835937-28.460937-28.992188 0-57.34375 10.109375-79.832032 28.460937-2.933593 2.398438-7.183593 2.253907-9.949218-.332031l-17.066406-15.941406c-3.027344-2.824219-3.21875-7.5625-.425782-10.625l12.871094-14.113281c3.890625-4.269532 3.574219-11.074219-.691406-14.960938-4.316406-3.9375-11.027344-3.625-14.960938.6875l-12.578125 13.792969c-2.796875 3.070313-7.71875 3.265625-10.753906.429687l-26.59375-24.839843c-4.808594-4.488281-1.714844-12.804688 4.839844-13.085938l19.695312-.839843c5.714844-.242188 10.375-5.320313 10.132813-11.03125-.242188-5.710938-5.300782-10.378907-11.015625-10.132813l-62.988281 2.683594c-5.738282.242187-10.285157 5.113281-10.136719 10.851562l1.613281 63.007813c.148438 5.691406 4.890625 10.320312 10.578125 10.320312 5.878906-.023437 10.75-4.957031 10.597656-10.863281l-.503906-19.707031c-.167969-6.558594 7.925781-10.210938 12.726563-5.71875l26.910156 25.132812c3.027344 2.828125 3.21875 7.566406.425781 10.628906l-10.65625 11.6875c-3.886719 4.261719-3.582031 11.078126.6875 14.960938 4.277344 3.886719 11.070313 3.578125 14.964844-.691406l10.363281-11.367188c2.800781-3.066406 7.71875-3.265625 10.753906-.429687l16.738282 15.632812c2.769531 2.585938 3.199218 6.816407 1.007812 9.90625-15.199219 21.4375-23.234375 46.671875-23.234375 72.976563 0 62.964844 47.003906 116.835937 109.34375 125.316406 3.75.511719 6.546875 3.710938 6.546875 7.496094v75.46875c0 4.179687-3.386719 7.5625-7.566406 7.5625h-19.914063c-5.839843 0-10.59375 4.753906-10.59375 10.59375s4.753907 10.59375 10.59375 10.59375h19.914063c4.179687 0 7.566406 3.386718 7.566406 7.5625v27.527344c0 5.84375 4.75 10.59375 10.589844 10.59375s10.59375-4.75 10.59375-10.59375v-27.527344c0-4.179688 3.386718-7.5625 7.5625-7.5625h19.917968c5.839844 0 10.589844-4.753906 10.589844-10.59375s-4.75-10.59375-10.589844-10.59375h-19.917968c-4.175782 0-7.5625-3.386719-7.5625-7.5625v-21.53125c0-4.179688 3.386718-7.566406 7.5625-7.566406 4.179687 0 7.566406 3.386718 7.566406 7.566406v13.964844h12.351562c14.179688 0 25.722657 11.539062 25.722657 25.722656s-11.539063 25.722656-25.722657 25.722656h-12.351562v19.964844c0 14.183594-11.539062 25.722656-25.722656 25.722656zm18.15625-133.792969c-4.175782 0-7.566406-3.386719-7.566406-7.566406v-23.675781c0-3.78125 2.796874-6.984375 6.546874-7.496094 51.277344-6.972656 93.832032-45.503906 105.886719-95.871094.972657-4.0625 5.054688-6.570312 9.117188-5.597656s6.570312 5.054688 5.597656 9.121094c-6.625 27.667968-21.328125 52.488281-42.527344 71.769531-19.683593 17.910156-43.59375 29.765625-69.488281 34.527344v17.222656c0 4.179687-3.386719 7.566406-7.566406 7.566406zm-18.15625-58.753906c-58.0625 0-105.296875-47.238281-105.296875-105.300781 0-4.179688 3.386719-7.566406 7.5625-7.566406 4.179687 0 7.566406 3.386718 7.566406 7.566406 0 49.71875 40.449219 90.167968 90.167969 90.167968s90.167968-40.449218 90.167968-90.167968-40.449218-90.164063-90.167968-90.164063c-39.292969 0-73.796875 25.148438-85.855469 62.578125-1.28125 3.976563-5.542969 6.164063-9.519531 4.882813-3.976563-1.28125-6.160156-5.542969-4.878906-9.523438 6.777343-21.042969 19.804687-39.167969 37.671874-52.410156 18.234376-13.515625 39.875-20.660156 62.582032-20.660156 58.0625 0 105.296875 47.234375 105.296875 105.296875s-47.234375 105.300781-105.296875 105.300781zm0 0"/></svg>